<?xml version="1.0" encoding="UTF-8"?>
<svg width="128px" height="37px" viewBox="0 0 128 37" version="1.1" xmlns="http://www.w3.org/2000/svg" xmlns:xlink="http://www.w3.org/1999/xlink">
    <!-- Generator: sketchtool 63.1 (101010) - https://sketch.com -->
    <title>E82906F9-D27F-4074-A1F8-6723FC8C2ED5</title>
    <desc>Created with sketchtool.</desc>
    <g id="Symbols" stroke="none" stroke-width="1" fill="none" fill-rule="evenodd">
        <g id="Logo-/-Dark">
            <g id="Nav-Logo" transform="translate(0.000000, -0.000000)">
                <path d="M74.5513473,11.0325298 C76.9247352,11.0325298 78.8096414,11.8593554 80.1534109,13.4909484 C81.4797473,15.1001275 82.1521657,17.1597201 82.1521657,19.612802 C82.1521657,22.0879421 81.4566218,24.1710161 80.086169,25.8029648 C78.698639,27.4541256 76.8034153,28.2912687 74.4531529,28.2912687 C73.2420882,28.2912687 72.1480742,28.0340419 71.2020633,27.5274156 C70.6356665,27.2235821 70.1475405,26.8653147 69.7412433,26.456527 L69.7412433,26.456527 L69.7412433,33.6887605 C69.7412433,33.9004477 69.5701146,34.0719322 69.3584273,34.0719322 L69.3584273,34.0719322 L66.3208039,34.0719322 C66.1091166,34.0719322 65.9379879,33.9004477 65.9379879,33.6887605 L65.9379879,33.6887605 L65.9379879,11.7746805 C65.9379879,11.5629932 66.1091166,11.3918645 66.3208039,11.3918645 L66.3208039,11.3918645 L69.2926086,11.3918645 C69.5042958,11.3918645 69.6754245,11.5629932 69.6754245,11.7746805 L69.6754245,11.7746805 L69.6754245,13.0394675 C70.0859911,12.5894097 70.5822999,12.1969877 71.1604374,11.8671825 C72.1295738,11.3132378 73.2694831,11.0325298 74.5513473,11.0325298 Z M40.8778536,10.9017818 C41.9199242,10.9017818 42.8659351,11.0586794 43.6899144,11.367138 C44.526346,11.6805775 45.1920046,12.1043078 45.6680342,12.6269442 C46.1220055,13.1271665 46.4695996,13.6042634 46.7029893,14.0454268 C46.9331769,14.4837439 47.1089307,14.9409173 47.2256256,15.4044946 C47.2725881,15.593768 47.1701244,15.7880222 46.9879666,15.8563313 L46.9879666,15.8563313 L44.2773022,16.8685167 C44.1698575,16.9097868 44.0517396,16.8987577 43.952122,16.8414777 C43.8535718,16.7841976 43.7856184,16.6863589 43.7660507,16.5735776 C43.727271,16.3448131 43.6593176,16.1164043 43.5636136,15.8940437 C43.4668423,15.6723947 43.3113678,15.4180142 43.102171,15.1394408 C42.9150323,14.8911085 42.633257,14.6847579 42.263249,14.5271487 C41.8758079,14.3634913 41.4093843,14.2798838 40.8778536,14.2798838 C40.2033005,14.2798838 39.6696351,14.4535029 39.2462606,14.8103472 C38.8431653,15.1508257 38.647488,15.5361321 38.647488,15.987613 C38.647488,16.5002876 38.802251,17.2153992 40.1421069,17.5078478 L40.1421069,17.5078478 L42.6901813,18.0628598 C44.156338,18.3844822 45.306209,18.9889472 46.1070629,19.8602449 C46.9214363,20.7450621 47.3348491,21.8372973 47.3348491,23.1070651 C47.3348491,24.4486999 46.7858853,25.6725726 45.7025445,26.7434611 C44.6206269,27.8136381 43.1071518,28.356198 41.2037453,28.356198 C39.1783072,28.356198 37.5655704,27.834629 36.4103627,26.8060779 C35.2558666,25.7800172 34.5877175,24.6518486 34.4237043,23.4532361 C34.3991557,23.273213 34.5044657,23.1006612 34.6759502,23.0401791 L34.6759502,23.0401791 L37.4517218,22.0603694 C37.5602337,22.021234 37.6815537,22.035465 37.7801039,22.0955913 C37.8782983,22.1564292 37.9437613,22.2581814 37.9587039,22.3727416 C38.0561868,23.1337484 38.3774533,23.7446174 38.9420713,24.2405704 C39.4981507,24.7297637 40.2698308,24.978096 41.2368325,24.978096 C41.9679541,24.978096 42.5443127,24.8048327 42.9495427,24.4636426 C43.3412531,24.1338374 43.5319495,23.7439058 43.5319495,23.2707225 C43.5319495,22.72923 43.3533495,21.9689348 41.8057198,21.619206 L41.8057198,21.619206 L39.1295658,21.0318183 C37.8352493,20.7539565 36.7992269,20.1864923 36.0513838,19.3447241 C35.2939347,18.4919268 34.9096956,17.4505678 34.9096956,16.2487533 C34.9096956,14.7911352 35.5081124,13.5192327 36.6868014,12.4682676 C37.8533939,11.4290432 39.2636937,10.9017818 40.8778536,10.9017818 Z M52.7979461,11.3917578 C53.0096334,11.3917578 53.1807621,11.5628865 53.1807621,11.7745738 L53.1807621,11.7745738 L53.1807621,21.2126242 C53.1807621,22.2980996 53.4461717,23.1982152 53.968808,23.8887782 C54.4736555,24.55586 55.2545858,24.8799727 56.3578501,24.8799727 C57.4707203,24.8799727 58.2843822,24.5654659 58.844375,23.9183077 C59.4111277,23.2633224 59.6982397,22.3646299 59.6982397,21.2457114 L59.6982397,21.2457114 L59.6982397,11.7745738 C59.6982397,11.5628865 59.8693684,11.3917578 60.0810556,11.3917578 L60.0810556,11.3917578 L63.1510548,11.3917578 C63.362742,11.3917578 63.5338707,11.5628865 63.5338707,11.7745738 L63.5338707,11.7745738 L63.5338707,24.5768508 C63.5338707,25.5844111 63.5875931,26.5471434 63.6936146,27.4383646 C63.7071341,27.5468766 63.6729795,27.6561001 63.600401,27.7379288 C63.5278225,27.8197575 63.4228683,27.8663643 63.3140006,27.8663643 L63.3140006,27.8663643 L60.3749274,27.8663643 C60.1902792,27.8663643 60.0316027,27.734371 59.9981596,27.552569 C59.9543991,27.3134869 59.9213118,27.0370483 59.8985421,26.7253877 C59.517505,27.1277714 59.0542834,27.4589997 58.5138583,27.7151591 C57.6165889,28.1406683 56.6389139,28.3559133 55.606805,28.3559133 C53.7162064,28.3559133 52.1803174,27.7148033 51.0432543,26.4496605 C49.9165088,25.1962584 49.345131,23.5881467 49.345131,21.6701533 L49.345131,21.6701533 L49.345131,11.7745738 C49.345131,11.5628865 49.5166155,11.3917578 49.727947,11.3917578 L49.727947,11.3917578 Z M121.012298,10.9017107 C122.054369,10.9017107 123.00038,11.0586083 123.824359,11.3670669 C124.661147,11.6805064 125.326449,12.1042367 125.802835,12.626873 C126.25645,13.1270954 126.6044,13.6041922 126.837434,14.0453556 C127.067622,14.4840286 127.243375,14.9408461 127.36007,15.4047793 C127.407033,15.5936968 127.304569,15.7883068 127.122411,15.8562602 L127.122411,15.8562602 L124.411747,16.8684455 C124.304302,16.9097157 124.186184,16.8986866 124.086567,16.8417623 C123.988017,16.7841264 123.920063,16.6862878 123.900495,16.5738622 C123.861716,16.3447419 123.793407,16.1166889 123.698058,15.8943283 C123.601287,15.6723235 123.446168,15.4182988 123.236616,15.1393697 C123.049477,14.8910374 122.767702,14.6846868 122.397694,14.5274333 C122.010253,14.3634202 121.543829,14.2798126 121.012298,14.2798126 C120.337745,14.2798126 119.803724,14.4537875 119.380705,14.8106318 C118.977966,15.1511103 118.781933,15.5364167 118.781933,15.9875419 C118.781933,16.5005722 118.936696,17.215328 120.276552,17.5081325 L120.276552,17.5081325 L122.824626,18.0627887 C124.290783,18.3847668 125.440654,18.988876 126.241508,19.8601737 C127.055525,20.744991 127.468938,21.8375819 127.468938,23.106994 C127.468938,24.4486288 126.92033,25.6725014 125.836989,26.7437458 C124.755072,27.813567 123.241597,28.3561268 121.33819,28.3561268 C119.312752,28.3561268 117.700015,27.8345578 116.544807,26.8060067 C115.390311,25.7803018 114.722162,24.6517774 114.558149,23.4535207 C114.5336,23.2731418 114.639266,23.10059 114.810395,23.0401079 L114.810395,23.0401079 L117.586522,22.060654 C117.695034,22.0211628 117.815643,22.0353939 117.914549,22.0955202 C118.012387,22.156358 118.078562,22.2581102 118.093504,22.3726704 C118.190632,23.1336773 118.511898,23.7445462 119.076516,24.2408551 C119.632951,24.7300483 120.404631,24.9780249 121.371277,24.9780249 C122.102399,24.9780249 122.678757,24.8047615 123.083987,24.4635714 C123.476054,24.134122 123.66675,23.7438347 123.66675,23.2706514 C123.66675,22.7291589 123.487794,21.9688636 121.940165,21.6191349 L121.940165,21.6191349 L119.264366,21.0317472 C117.97005,20.7542412 116.933672,20.1864212 116.185829,19.344653 C115.428379,18.4918557 115.04414,17.4508524 115.04414,16.2490379 C115.04414,14.7910641 115.642557,13.5195173 116.821246,12.4685523 C117.987839,11.4289721 119.398138,10.9017107 121.012298,10.9017107 Z M101.744313,12.5342998 C103.474456,11.7099647 105.477836,11.6726081 107.279134,12.4674138 C107.823473,12.7086305 108.330455,13.0067716 108.792965,13.3582792 L108.792965,13.3582792 L108.792965,12.6143496 C108.792965,12.3674405 108.9922,12.167138 109.240177,12.167138 L109.240177,12.167138 L112.01417,12.167138 C112.261079,12.167138 112.461381,12.3674405 112.461381,12.6143496 L112.461381,12.6143496 L112.461381,27.4079101 C112.461381,27.653752 112.261079,27.8540544 112.01417,27.8540544 L112.01417,27.8540544 L109.240177,27.8540544 C108.9922,27.8540544 108.792965,27.653752 108.792965,27.4079101 L108.792965,27.4079101 L108.792965,26.7735599 C108.337571,27.1047882 107.836637,27.3790922 107.292298,27.5936257 C106.431318,27.9309022 105.521952,28.1009636 104.586615,28.1009636 C103.604314,28.1009636 102.650477,27.8963919 101.753919,27.4922293 C100.857717,27.089134 100.061132,26.5081503 99.3872905,25.7681343 C98.7162953,25.0327434 98.1829856,24.1607341 97.8040832,23.1762993 C97.4273154,22.1972012 97.2369748,21.1522844 97.2369748,20.0728572 C97.2369748,18.9952089 97.4273154,17.9417534 97.8040832,16.9420202 C98.1819183,15.9365946 98.7152279,15.0482196 99.386579,14.3032227 C100.05793,13.5546681 100.851313,12.9587417 101.744313,12.5342998 Z M87.778173,3.45551301 C87.9898602,3.45551301 88.1609889,3.62664171 88.1609889,3.83832899 L88.1609889,3.83832899 L88.1609889,27.4836195 C88.1609889,27.6953067 87.9898602,27.8664354 87.778173,27.8664354 L87.778173,27.8664354 L84.7074623,27.8664354 C84.495775,27.8664354 84.3246463,27.6953067 84.3246463,27.4836195 L84.3246463,27.4836195 L84.3246463,3.83832899 C84.3246463,3.62664171 84.495775,3.45551301 84.7074623,3.45551301 L84.7074623,3.45551301 Z M94.459105,11.3917222 C94.6707923,11.3917222 94.841921,11.5628509 94.841921,11.7745382 L94.841921,11.7745382 L94.841921,27.4835127 C94.841921,27.6952 94.6707923,27.8666845 94.459105,27.8666845 L94.459105,27.8666845 L91.4214816,27.8666845 C91.2097943,27.8666845 91.0386656,27.6952 91.0386656,27.4835127 L91.0386656,27.4835127 L91.0386656,11.7745382 C91.0386656,11.5628509 91.2097943,11.3917222 91.4214816,11.3917222 L91.4214816,11.3917222 Z M73.9963353,14.5088262 C72.7105575,14.5088262 71.7012184,14.9713362 70.910682,15.922328 C70.1130302,16.880791 69.7085118,18.1228083 69.7085118,19.612802 C69.7085118,21.1469122 70.1130302,22.4106318 70.910682,23.3690949 C71.7012184,24.3197308 72.7105575,24.781885 73.9963353,24.781885 C75.2806901,24.781885 76.2843368,24.3200866 77.0641998,23.3708737 C77.8515341,22.4113434 78.2507159,21.1469122 78.2507159,19.612802 C78.2507159,18.1217409 77.8568708,16.8786563 77.0791424,15.9180586 C76.3095969,14.9702689 75.3009693,14.5088262 73.9963353,14.5088262 Z M105.01746,15.218281 C103.887869,15.218281 102.942925,15.6587328 102.130686,16.5648967 C101.316313,17.4731952 100.903968,18.6636248 100.903968,20.103454 C100.903968,21.0174449 101.070471,21.8232797 101.398142,22.4956981 C101.721187,23.1613567 102.198996,23.7081858 102.81698,24.1244449 C103.91384,24.8616146 105.55753,25.0096179 107.019773,24.1973791 C107.661595,23.838756 108.145095,23.3082926 108.498026,22.5757479 C108.857717,21.8286163 109.039163,20.9971656 109.039163,20.103454 C109.039163,18.6597112 108.639981,17.4678585 107.853714,16.5592042 C107.073495,15.6576655 106.145985,15.218281 105.01746,15.218281 Z M92.924141,3.22689076 C93.633916,3.22689076 94.251189,3.47771349 94.7588827,3.9725992 C95.2690668,4.46997535 95.5277166,5.09543119 95.5277166,5.83046632 C95.5277166,6.54415484 95.2690668,7.1585816 94.7595942,7.65595774 C94.251189,8.15084345 93.633916,8.40166619 92.924141,8.40166619 C92.2125872,8.40166619 91.5992278,8.14942034 91.1022074,7.65239998 C90.6048312,7.15537961 90.3529412,6.54237596 90.3529412,5.83046632 C90.3529412,5.12069135 90.6041197,4.50341838 91.0982938,3.9957247 C91.5967373,3.48554058 92.2100967,3.22689076 92.924141,3.22689076 Z" id="Combined-Shape" fill="#171C34"></path>
                <g id="Icon">
                    <path d="M27.1553422,4.52372243 C26.9429647,4.95587736 24.2756659,10.4810226 21.8943738,15.4056649 C17.4969754,12.5400485 11.8404816,12.2003925 11.3413575,12.2296221 C10.5244071,12.2773516 9.67600701,12.6443873 9.21018247,13.5571666 C9.00520487,13.9567619 7.32024462,17.4354611 5.45990642,21.2811961 C2.66606916,19.4615574 0.379495956,16.6218407 0.244447539,12.2100124 C0.0846094119,6.97198374 5.03293142,1.59853671 11.636614,0.428610418 C18.2410366,-0.740945877 24.9760677,0.716097049 26.6713878,2.01145187 C27.3695697,2.58975509 27.5342177,3.75450144 27.1553422,4.52372243" id="Fill-1" fill="#3B54EA"></path>
                    <path d="M21.8944848,15.4057019 C20.0337766,19.2514368 18.3488164,22.7312461 18.1442088,23.1308414 C17.6776442,24.0428807 16.8292442,24.4099164 16.0126638,24.4576458 C15.5127996,24.4872455 9.85778588,24.1472195 5.46001742,21.2812331 C7.32035562,17.4354981 9.00531587,13.9567989 9.20992347,13.5572036 C9.67611801,12.6444243 10.5245181,12.2773886 11.3414685,12.2296591 C11.8405926,12.2004295 17.4970864,12.5400855 21.8944848,15.4057019" id="Fill-3" fill="#1784FA"></path>
                    <path d="M15.7167412,36.2591755 C9.11231862,37.4291018 2.37839753,35.9709489 0.683077399,34.6767041 C-0.0154744152,34.0976609 -0.180492481,32.9336545 0.198383079,32.1640635 C0.411130585,31.7319086 3.07842933,26.2060233 5.45972142,21.281381 C9.85785988,24.1473675 15.5128736,24.4873935 16.0127378,24.4577938 C16.8293182,24.4100644 17.6773482,24.0426587 18.1442828,23.1309894 C18.3488904,22.7310241 20.0338506,19.2512148 21.8945588,15.4058499 C24.6883961,17.2258586 26.9742293,20.0652053 27.1089077,24.4770336 C27.2687458,29.7158022 22.3211638,35.0892492 15.7167412,36.2591755" id="Fill-5" fill="#23C9FB"></path>
                </g>
            </g>
        </g>
    </g>
</svg>